<svg width="64" height="226" viewBox="0 0 64 226" fill="none" xmlns="http://www.w3.org/2000/svg">
<g clip-path="url(#clip0_18_3)">
<g clip-path="url(#clip1_18_3)">
<circle cx="30.9601" cy="102" r="2" transform="rotate(90 30.9601 102)" fill="#F3A13B"/>
<circle cx="30.9601" cy="113" r="2" transform="rotate(90 30.9601 113)" fill="#F3A13B"/>
<circle cx="30.9601" cy="124" r="2" transform="rotate(90 30.9601 124)" fill="#F3A13B"/>
<circle cx="30.9601" cy="135" r="2" transform="rotate(90 30.9601 135)" fill="#F3A13B"/>
<circle cx="30.9601" cy="146" r="2" transform="rotate(90 30.9601 146)" fill="#F3A13B"/>
<circle cx="30.9601" cy="157" r="2" transform="rotate(90 30.9601 157)" fill="#F3A13B"/>
<circle cx="30.9601" cy="168" r="2" transform="rotate(90 30.9601 168)" fill="#F3A13B"/>
<circle cx="30.9601" cy="179" r="2" transform="rotate(90 30.9601 179)" fill="#F3A13B"/>
<circle cx="30.9601" cy="190" r="2" transform="rotate(90 30.9601 190)" fill="#F3A13B"/>
</g>
<g clip-path="url(#clip2_18_3)">
<circle cx="19.9601" cy="102" r="2" transform="rotate(90 19.9601 102)" fill="#F3A13B"/>
<circle cx="19.9601" cy="113" r="2" transform="rotate(90 19.9601 113)" fill="#F3A13B"/>
<circle cx="19.9601" cy="124" r="2" transform="rotate(90 19.9601 124)" fill="#F3A13B"/>
<circle cx="19.9601" cy="135" r="2" transform="rotate(90 19.9601 135)" fill="#F3A13B"/>
<circle cx="19.9601" cy="146" r="2" transform="rotate(90 19.9601 146)" fill="#F3A13B"/>
<circle cx="19.9601" cy="157" r="2" transform="rotate(90 19.9601 157)" fill="#F3A13B"/>
<circle cx="19.9601" cy="168" r="2" transform="rotate(90 19.9601 168)" fill="#F3A13B"/>
<circle cx="19.9601" cy="179" r="2" transform="rotate(90 19.9601 179)" fill="#F3A13B"/>
<circle cx="19.9601" cy="190" r="2" transform="rotate(90 19.9601 190)" fill="#F3A13B"/>
</g>
<g clip-path="url(#clip3_18_3)">
<circle cx="8.96008" cy="102" r="2" transform="rotate(90 8.96008 102)" fill="#F3A13B"/>
<circle cx="8.96008" cy="113" r="2" transform="rotate(90 8.96008 113)" fill="#F3A13B"/>
<circle cx="8.96008" cy="124" r="2" transform="rotate(90 8.96008 124)" fill="#F3A13B"/>
<circle cx="8.96008" cy="135" r="2" transform="rotate(90 8.96008 135)" fill="#F3A13B"/>
<circle cx="8.96008" cy="146" r="2" transform="rotate(90 8.96008 146)" fill="#F3A13B"/>
<circle cx="8.96008" cy="157" r="2" transform="rotate(90 8.96008 157)" fill="#F3A13B"/>
<circle cx="8.96008" cy="168" r="2" transform="rotate(90 8.96008 168)" fill="#F3A13B"/>
<circle cx="8.96008" cy="179" r="2" transform="rotate(90 8.96008 179)" fill="#F3A13B"/>
<circle cx="8.96008" cy="190" r="2" transform="rotate(90 8.96008 190)" fill="#F3A13B"/>
</g>
</g>
<g clip-path="url(#clip4_18_3)">
<g clip-path="url(#clip5_18_3)">
<circle cx="30.9601" cy="2" r="2" transform="rotate(90 30.9601 2)" fill="#F3A13B"/>
<circle cx="30.9601" cy="13" r="2" transform="rotate(90 30.9601 13)" fill="#F3A13B"/>
<circle cx="30.9601" cy="24" r="2" transform="rotate(90 30.9601 24)" fill="#F3A13B"/>
<circle cx="30.9601" cy="35" r="2" transform="rotate(90 30.9601 35)" fill="#F3A13B"/>
<circle cx="30.9601" cy="46" r="2" transform="rotate(90 30.9601 46)" fill="#F3A13B"/>
<circle cx="30.9601" cy="57" r="2" transform="rotate(90 30.9601 57)" fill="#F3A13B"/>
<circle cx="30.9601" cy="68" r="2" transform="rotate(90 30.9601 68)" fill="#F3A13B"/>
<circle cx="30.9601" cy="79" r="2" transform="rotate(90 30.9601 79)" fill="#F3A13B"/>
<circle cx="30.9601" cy="90" r="2" transform="rotate(90 30.9601 90)" fill="#F3A13B"/>
</g>
<g clip-path="url(#clip6_18_3)">
<circle cx="19.9601" cy="2" r="2" transform="rotate(90 19.9601 2)" fill="#F3A13B"/>
<circle cx="19.9601" cy="13" r="2" transform="rotate(90 19.9601 13)" fill="#F3A13B"/>
<circle cx="19.9601" cy="24" r="2" transform="rotate(90 19.9601 24)" fill="#F3A13B"/>
<circle cx="19.9601" cy="35" r="2" transform="rotate(90 19.9601 35)" fill="#F3A13B"/>
<circle cx="19.9601" cy="46" r="2" transform="rotate(90 19.9601 46)" fill="#F3A13B"/>
<circle cx="19.9601" cy="57" r="2" transform="rotate(90 19.9601 57)" fill="#F3A13B"/>
<circle cx="19.9601" cy="68" r="2" transform="rotate(90 19.9601 68)" fill="#F3A13B"/>
<circle cx="19.9601" cy="79" r="2" transform="rotate(90 19.9601 79)" fill="#F3A13B"/>
<circle cx="19.9601" cy="90" r="2" transform="rotate(90 19.9601 90)" fill="#F3A13B"/>
</g>
<g clip-path="url(#clip7_18_3)">
<circle cx="8.96008" cy="2" r="2" transform="rotate(90 8.96008 2)" fill="#F3A13B"/>
<circle cx="8.96008" cy="13" r="2" transform="rotate(90 8.96008 13)" fill="#F3A13B"/>
<circle cx="8.96008" cy="24" r="2" transform="rotate(90 8.96008 24)" fill="#F3A13B"/>
<circle cx="8.96008" cy="35" r="2" transform="rotate(90 8.96008 35)" fill="#F3A13B"/>
<circle cx="8.96008" cy="46" r="2" transform="rotate(90 8.96008 46)" fill="#F3A13B"/>
<circle cx="8.96008" cy="57" r="2" transform="rotate(90 8.96008 57)" fill="#F3A13B"/>
<circle cx="8.96008" cy="68" r="2" transform="rotate(90 8.96008 68)" fill="#F3A13B"/>
<circle cx="8.96008" cy="79" r="2" transform="rotate(90 8.96008 79)" fill="#F3A13B"/>
<circle cx="8.96008" cy="90" r="2" transform="rotate(90 8.96008 90)" fill="#F3A13B"/>
</g>
</g>
<g clip-path="url(#clip8_18_3)">
<g clip-path="url(#clip9_18_3)">
<circle cx="62" cy="102" r="2" transform="rotate(90 62 102)" fill="#F3A13B"/>
<circle cx="62" cy="113" r="2" transform="rotate(90 62 113)" fill="#F3A13B"/>
<circle cx="62" cy="124" r="2" transform="rotate(90 62 124)" fill="#F3A13B"/>
<circle cx="62" cy="135" r="2" transform="rotate(90 62 135)" fill="#F3A13B"/>
<circle cx="62" cy="146" r="2" transform="rotate(90 62 146)" fill="#F3A13B"/>
<circle cx="62" cy="157" r="2" transform="rotate(90 62 157)" fill="#F3A13B"/>
<circle cx="62" cy="168" r="2" transform="rotate(90 62 168)" fill="#F3A13B"/>
<circle cx="62" cy="179" r="2" transform="rotate(90 62 179)" fill="#F3A13B"/>
<circle cx="62" cy="190" r="2" transform="rotate(90 62 190)" fill="#F3A13B"/>
</g>
<g clip-path="url(#clip10_18_3)">
<circle cx="51" cy="102" r="2" transform="rotate(90 51 102)" fill="#F3A13B"/>
<circle cx="51" cy="113" r="2" transform="rotate(90 51 113)" fill="#F3A13B"/>
<circle cx="51" cy="124" r="2" transform="rotate(90 51 124)" fill="#F3A13B"/>
<circle cx="51" cy="135" r="2" transform="rotate(90 51 135)" fill="#F3A13B"/>
<circle cx="51" cy="146" r="2" transform="rotate(90 51 146)" fill="#F3A13B"/>
<circle cx="51" cy="157" r="2" transform="rotate(90 51 157)" fill="#F3A13B"/>
<circle cx="51" cy="168" r="2" transform="rotate(90 51 168)" fill="#F3A13B"/>
<circle cx="51" cy="179" r="2" transform="rotate(90 51 179)" fill="#F3A13B"/>
<circle cx="51" cy="190" r="2" transform="rotate(90 51 190)" fill="#F3A13B"/>
</g>
<g clip-path="url(#clip11_18_3)">
<circle cx="40" cy="102" r="2" transform="rotate(90 40 102)" fill="#F3A13B"/>
<circle cx="40" cy="113" r="2" transform="rotate(90 40 113)" fill="#F3A13B"/>
<circle cx="40" cy="124" r="2" transform="rotate(90 40 124)" fill="#F3A13B"/>
<circle cx="40" cy="135" r="2" transform="rotate(90 40 135)" fill="#F3A13B"/>
<circle cx="40" cy="146" r="2" transform="rotate(90 40 146)" fill="#F3A13B"/>
<circle cx="40" cy="157" r="2" transform="rotate(90 40 157)" fill="#F3A13B"/>
<circle cx="40" cy="168" r="2" transform="rotate(90 40 168)" fill="#F3A13B"/>
<circle cx="40" cy="179" r="2" transform="rotate(90 40 179)" fill="#F3A13B"/>
<circle cx="40" cy="190" r="2" transform="rotate(90 40 190)" fill="#F3A13B"/>
</g>
</g>
<g clip-path="url(#clip12_18_3)">
<g clip-path="url(#clip13_18_3)">
<circle cx="62" cy="2" r="2" transform="rotate(90 62 2)" fill="#F3A13B"/>
<circle cx="62" cy="13" r="2" transform="rotate(90 62 13)" fill="#F3A13B"/>
<circle cx="62" cy="24" r="2" transform="rotate(90 62 24)" fill="#F3A13B"/>
<circle cx="62" cy="35" r="2" transform="rotate(90 62 35)" fill="#F3A13B"/>
<circle cx="62" cy="46" r="2" transform="rotate(90 62 46)" fill="#F3A13B"/>
<circle cx="62" cy="57" r="2" transform="rotate(90 62 57)" fill="#F3A13B"/>
<circle cx="62" cy="68" r="2" transform="rotate(90 62 68)" fill="#F3A13B"/>
<circle cx="62" cy="79" r="2" transform="rotate(90 62 79)" fill="#F3A13B"/>
<circle cx="62" cy="90" r="2" transform="rotate(90 62 90)" fill="#F3A13B"/>
</g>
<g clip-path="url(#clip14_18_3)">
<circle cx="51" cy="2" r="2" transform="rotate(90 51 2)" fill="#F3A13B"/>
<circle cx="51" cy="13" r="2" transform="rotate(90 51 13)" fill="#F3A13B"/>
<circle cx="51" cy="24" r="2" transform="rotate(90 51 24)" fill="#F3A13B"/>
<circle cx="51" cy="35" r="2" transform="rotate(90 51 35)" fill="#F3A13B"/>
<circle cx="51" cy="46" r="2" transform="rotate(90 51 46)" fill="#F3A13B"/>
<circle cx="51" cy="57" r="2" transform="rotate(90 51 57)" fill="#F3A13B"/>
<circle cx="51" cy="68" r="2" transform="rotate(90 51 68)" fill="#F3A13B"/>
<circle cx="51" cy="79" r="2" transform="rotate(90 51 79)" fill="#F3A13B"/>
<circle cx="51" cy="90" r="2" transform="rotate(90 51 90)" fill="#F3A13B"/>
</g>
<g clip-path="url(#clip15_18_3)">
<circle cx="40" cy="2" r="2" transform="rotate(90 40 2)" fill="#F3A13B"/>
<circle cx="40" cy="13" r="2" transform="rotate(90 40 13)" fill="#F3A13B"/>
<circle cx="40" cy="24" r="2" transform="rotate(90 40 24)" fill="#F3A13B"/>
<circle cx="40" cy="35" r="2" transform="rotate(90 40 35)" fill="#F3A13B"/>
<circle cx="40" cy="46" r="2" transform="rotate(90 40 46)" fill="#F3A13B"/>
<circle cx="40" cy="57" r="2" transform="rotate(90 40 57)" fill="#F3A13B"/>
<circle cx="40" cy="68" r="2" transform="rotate(90 40 68)" fill="#F3A13B"/>
<circle cx="40" cy="79" r="2" transform="rotate(90 40 79)" fill="#F3A13B"/>
<circle cx="40" cy="90" r="2" transform="rotate(90 40 90)" fill="#F3A13B"/>
</g>
</g>
<defs>
<clipPath id="clip0_18_3">
<rect width="126" height="32.96" fill="white" transform="translate(32.9601 100) rotate(90)"/>
</clipPath>
<clipPath id="clip1_18_3">
<rect width="100" height="11" fill="white" transform="translate(32.9601 100) rotate(90)"/>
</clipPath>
<clipPath id="clip2_18_3">
<rect width="100" height="11" fill="white" transform="translate(21.9601 100) rotate(90)"/>
</clipPath>
<clipPath id="clip3_18_3">
<rect width="100" height="11" fill="white" transform="translate(10.9601 100) rotate(90)"/>
</clipPath>
<clipPath id="clip4_18_3">
<rect width="126" height="32.96" fill="white" transform="translate(32.9601) rotate(90)"/>
</clipPath>
<clipPath id="clip5_18_3">
<rect width="100" height="11" fill="white" transform="translate(32.9601) rotate(90)"/>
</clipPath>
<clipPath id="clip6_18_3">
<rect width="100" height="11" fill="white" transform="translate(21.9601) rotate(90)"/>
</clipPath>
<clipPath id="clip7_18_3">
<rect width="100" height="11" fill="white" transform="translate(10.9601) rotate(90)"/>
</clipPath>
<clipPath id="clip8_18_3">
<rect width="126" height="32.96" fill="white" transform="translate(64 100) rotate(90)"/>
</clipPath>
<clipPath id="clip9_18_3">
<rect width="100" height="11" fill="white" transform="translate(64 100) rotate(90)"/>
</clipPath>
<clipPath id="clip10_18_3">
<rect width="100" height="11" fill="white" transform="translate(53 100) rotate(90)"/>
</clipPath>
<clipPath id="clip11_18_3">
<rect width="100" height="11" fill="white" transform="translate(42 100) rotate(90)"/>
</clipPath>
<clipPath id="clip12_18_3">
<rect width="126" height="32.96" fill="white" transform="translate(64) rotate(90)"/>
</clipPath>
<clipPath id="clip13_18_3">
<rect width="100" height="11" fill="white" transform="translate(64) rotate(90)"/>
</clipPath>
<clipPath id="clip14_18_3">
<rect width="100" height="11" fill="white" transform="translate(53) rotate(90)"/>
</clipPath>
<clipPath id="clip15_18_3">
<rect width="100" height="11" fill="white" transform="translate(42) rotate(90)"/>
</clipPath>
</defs>
</svg>
