<svg width="522" height="441" viewBox="0 0 522 441" fill="none" xmlns="http://www.w3.org/2000/svg">
<g clip-path="url(#clip0_4_126)">
<path fill-rule="evenodd" clip-rule="evenodd" d="M417.728 102.751C442.998 105.24 460.228 150.936 461.696 211.884C461.696 211.948 461.696 212.076 461.696 212.14C462.015 226.691 461.504 242.135 459.973 258.09C456.846 290.511 450.018 320.124 440.956 343.993C437.319 353.693 433.298 362.373 429.023 369.968C416.898 391.411 402.731 403.665 388.628 402.325C359.848 399.517 341.533 340.674 344.979 267.025C345.298 260.452 345.745 253.751 346.447 246.986C349.638 213.926 356.721 183.739 365.974 159.679C379.822 123.493 398.839 100.9 417.728 102.751Z" fill="#1C2628" stroke="#1C2628" stroke-width="2.13" stroke-linecap="round" stroke-linejoin="round"/>
<path d="M398.137 88.0085C407.709 80.2224 416.068 79.4566 426.789 79.9033C461.249 81.3712 468.715 128.152 476.437 154.254" stroke="#1C2628" stroke-width="2.13" stroke-linecap="round" stroke-linejoin="round"/>
<path d="M332.153 348.46C338.47 386.114 363.166 431.363 408.092 417.642" stroke="#1C2628" stroke-width="2.13" stroke-linecap="round" stroke-linejoin="round"/>
<path d="M427.363 181.314C424.619 179.336 426.406 179.655 426.917 181.952C428.767 190.185 430.937 198.418 433.107 206.587C435.851 216.926 442.551 225.733 447.401 235.243" stroke="#1C2628" stroke-width="2.13" stroke-linecap="round" stroke-linejoin="round"/>
<path fill-rule="evenodd" clip-rule="evenodd" d="M330.749 130.768C290.354 92.8589 100.762 190.504 137.264 251.006C147.028 271.939 163.556 280.491 183.019 288.852C257.49 309.147 232.603 398.113 313.008 400.793C430.363 405.835 417.089 171.358 330.749 130.768Z" fill="#F3A13B"/>
<path fill-rule="evenodd" clip-rule="evenodd" d="M193.165 350.056C190.932 336.143 189.528 322.868 209.31 326.697C211.991 327.208 228.71 331.037 230.561 344.503C234.964 371.819 196.93 377.499 193.165 350.056Z" fill="#F3A13B"/>
<path fill-rule="evenodd" clip-rule="evenodd" d="M188.826 308.828C192.974 314.699 187.231 325.868 179.509 322.166C163.364 319.294 181.551 287.639 188.826 308.828Z" fill="#F3A13B"/>
<path d="M280.655 303.403C285.313 301.424 290.418 299.382 295.332 300.659C299.416 301.68 302.671 304.807 305.478 307.934C306.882 309.53 308.35 311.189 308.924 313.231C309.562 315.273 309.18 317.762 307.52 319.103C305.734 320.571 302.99 320.188 300.948 319.103C299.352 318.273 297.948 316.869 297.438 315.146C296.544 312.146 298.778 308.955 301.65 307.743C304.521 306.53 307.776 306.849 310.839 307.487C323.346 310.104 334.322 317.188 345.043 324.145" stroke="#1C2628" stroke-width="2.13" stroke-linecap="round" stroke-linejoin="round"/>
<path fill-rule="evenodd" clip-rule="evenodd" d="M266.169 339.844C267.062 332.441 254.874 323.123 253.661 334.037C254.874 337.419 264.637 344.376 265.914 340.993" fill="#FAF6EB"/>
<path fill-rule="evenodd" clip-rule="evenodd" d="M183.976 266.578C185.635 274.556 192.846 277.747 200.377 273.854C202.482 272.769 211.672 266.387 210.651 260.643C210.14 257.899 211.353 249.155 190.485 250.879C182.317 251.964 181.807 255.92 183.976 266.578Z" fill="#F26B1D" stroke="#1C2628" stroke-width="2.13" stroke-linecap="round" stroke-linejoin="round"/>
<path fill-rule="evenodd" clip-rule="evenodd" d="M304.84 145.702C337.13 155.339 411.41 203.843 423.726 207.289L421.62 207.8C425.449 218.713 426.023 281.321 406.305 301.807C404.327 303.85 402.221 305.445 399.796 306.594L357.551 289.618C359.019 290.639 350.148 300.659 325.644 288.979C318.943 285.788 300.82 279.151 300.82 279.151C298.076 278.64 287.419 277.173 274.401 275.386C273.954 275.641 273.699 275.705 273.699 275.705C269.87 281.321 271.402 302.382 254.938 307.168C252.449 307.87 249.513 308.253 246.067 308.126C242.239 307.998 240.452 305.637 239.686 302.956C238.92 300.339 239.048 297.404 239.176 295.936C239.622 288.022 242.558 280.3 245.621 272.96C245.812 272.45 246.067 272.003 246.259 271.493C228.327 269.004 212.756 266.642 211.927 265.876C210.523 264.6 209.119 263.387 207.779 262.175C203.567 258.346 200.376 254.452 202.801 247.879C204.333 243.603 205.992 239.455 207.907 235.498C211.927 227.137 217.032 219.543 224.626 213.48C232.092 207.481 240.133 202.056 248.748 197.971C256.533 194.27 265.02 191.845 273.444 190.313C279.187 189.228 285.186 188.462 291.056 188.845C292.524 188.909 293.928 189.1 295.396 189.356C301.841 190.504 308.159 192.1 314.412 193.887L304.84 145.702Z" fill="#F26B1D" stroke="#1C2628" stroke-width="2.13" stroke-linecap="round" stroke-linejoin="round"/>
<path fill-rule="evenodd" clip-rule="evenodd" d="M406.305 301.807C404.327 303.85 402.221 305.445 399.796 306.594L357.551 289.618C359.019 290.639 350.148 300.659 325.644 288.979C318.943 285.788 300.82 279.151 300.82 279.151C298.076 278.64 287.419 277.173 274.401 275.386C273.954 275.641 273.699 275.705 273.699 275.705C269.87 281.321 271.402 302.382 254.938 307.168C255.767 302.509 257.299 297.531 258.894 292.234C262.085 281.64 263.999 275.258 269.934 271.876C276.826 267.919 280.655 272.833 296.927 269.578C301.841 268.621 303.883 267.663 311.094 266.451C319.39 265.047 323.602 264.409 326.729 265.621C334.45 268.684 335.216 277.683 340.066 277.556C342.937 277.492 344.086 274.301 347.149 271.046C347.149 271.046 355.19 262.366 369.803 261.664C388.245 260.771 409.559 285.15 406.305 301.807Z" fill="#FAF6EB"/>
<path fill-rule="evenodd" clip-rule="evenodd" d="M291.12 188.781C294.63 192.93 297.374 197.461 298.906 202.375C303.117 215.713 297.821 229.499 293.226 241.306C289.589 250.623 285.313 261.856 275.805 264.728C270.508 266.323 267.19 264.281 263.297 267.344C258.958 270.854 260.617 275.513 257.044 283.81C253.534 291.979 247.854 296.766 245.685 298.553C244.025 299.957 241.92 301.488 239.622 302.892C238.856 300.276 238.984 297.34 239.112 295.872C239.558 287.958 242.494 280.236 245.557 272.897C245.748 272.386 246.004 271.939 246.195 271.429C228.263 268.94 212.693 266.578 211.863 265.813C210.459 264.536 209.055 263.324 207.715 262.111C207.141 253.559 207.205 244.433 207.843 235.37C211.863 227.01 216.968 219.415 224.562 213.352C232.028 207.353 240.069 201.928 248.684 197.844C256.469 194.142 264.956 191.717 273.38 190.185C279.251 189.164 285.249 188.334 291.12 188.781Z" fill="#1C2628" stroke="#1C2628" stroke-width="2.13" stroke-linecap="round" stroke-linejoin="round"/>
<path fill-rule="evenodd" clip-rule="evenodd" d="M405.029 289.362C402.667 286.746 400.179 284.193 397.562 281.832C385.565 301.68 375.866 301.871 375.866 301.871L440.892 343.993C448.677 323.443 454.804 298.616 458.377 271.493C446.891 275.896 435.978 282.661 426.725 291.277C420.344 296.383 410.134 294.468 405.029 289.362Z" fill="#FAF6EB"/>
<path fill-rule="evenodd" clip-rule="evenodd" d="M406.879 263.004C403.688 270.727 400.562 276.854 397.562 281.832C400.179 284.129 402.667 286.682 405.029 289.362C410.134 294.468 420.344 296.383 426.725 291.277C435.978 282.597 446.891 275.832 458.377 271.493C458.952 267.089 459.462 262.622 459.909 258.09C461.44 242.199 462.015 226.754 461.632 212.14C461.632 212.076 461.632 211.948 461.632 211.884L411.41 193.951C411.474 193.951 425.896 216.99 406.879 263.004Z" fill="#F26B1D"/>
<path fill-rule="evenodd" clip-rule="evenodd" d="M269.296 185.462C264.51 183.676 256.98 186.228 252.194 187.632C225.902 195.482 212.693 217.692 199.802 239.965C195.335 247.688 194.569 252.027 207.205 258.984C213.905 262.685 230.369 265.111 234.964 260.069C248.429 245.071 259.022 226.499 275.996 216.288C278.549 214.756 301.522 206.97 301.522 206.97C301.522 206.97 295.715 201.992 290.418 195.865C285.951 190.76 285.632 189.292 284.547 188.526L269.296 185.462Z" fill="#F7AA9A"/>
<path d="M169.618 117.238C168.661 119.089 166.427 119.855 164.513 118.898L164.322 118.77C162.471 117.813 161.705 115.579 162.662 113.664C163.62 111.814 165.853 111.048 167.767 112.005L167.959 112.133C169.873 113.154 170.575 115.388 169.618 117.238ZM164.194 114.43C163.683 115.451 164.066 116.664 165.087 117.238L165.279 117.366C166.3 117.877 167.512 117.494 168.087 116.473C168.597 115.451 168.214 114.239 167.193 113.664L167.002 113.537C165.917 113.026 164.704 113.409 164.194 114.43Z" fill="#1C2628" stroke="#1C2628" stroke-width="2.13" stroke-linecap="round" stroke-linejoin="round"/>
<path d="M177.467 121.259C176.51 123.11 174.277 123.876 172.362 122.918L172.171 122.791C170.32 121.833 169.554 119.6 170.511 117.685C171.469 115.77 173.702 115.068 175.617 116.026L175.808 116.153C177.722 117.175 178.424 119.408 177.467 121.259ZM172.043 118.515C171.533 119.536 171.915 120.749 172.936 121.323L173.128 121.451C174.149 121.961 175.361 121.578 175.936 120.557C176.51 119.536 176.063 118.323 175.042 117.749L174.851 117.621C173.766 117.047 172.554 117.43 172.043 118.515Z" fill="#1C2628" stroke="#1C2628" stroke-width="2.13" stroke-linecap="round" stroke-linejoin="round"/>
<path d="M160.046 114.303C158.642 117.047 155.26 118.068 152.58 116.728L143.582 112.069C140.838 110.665 139.817 107.346 141.157 104.602C142.561 101.858 145.943 100.836 148.623 102.177L157.621 106.836C160.365 108.24 161.45 111.622 160.046 114.303ZM142.688 105.368C141.731 107.282 142.433 109.58 144.348 110.537L153.345 115.196C155.26 116.153 157.557 115.451 158.514 113.537C159.472 111.622 158.77 109.325 156.855 108.367L147.857 103.708C145.943 102.751 143.646 103.453 142.688 105.368Z" fill="#1C2628" stroke="#1C2628" stroke-width="2.13" stroke-linecap="round" stroke-linejoin="round"/>
<path fill-rule="evenodd" clip-rule="evenodd" d="M106.506 82.2009L291.376 177.421C296.991 180.293 299.161 187.186 296.289 192.802L253.406 276.088C250.534 281.704 243.643 283.874 238.027 281.002L133.116 227.01C132.989 225.095 132.861 223.18 132.733 221.202L239.877 276.343C243.132 278.002 247.152 276.726 248.875 273.471L291.376 190.823C291.886 189.866 292.141 188.845 292.141 187.76C292.141 185.271 290.737 182.974 288.504 181.825L104.336 86.9874C103.698 86.6683 103.06 86.4769 102.422 86.3492C102.422 86.2854 102.358 86.2216 102.358 86.1578C101.592 84.3708 100.763 82.6476 99.9968 80.9245C102.103 80.733 104.4 81.1159 106.506 82.2009Z" fill="#1C2628" stroke="#1C2628" stroke-width="2.13" stroke-linecap="round" stroke-linejoin="round"/>
<path fill-rule="evenodd" clip-rule="evenodd" d="M102.422 86.413C103.06 86.5407 103.698 86.7321 104.336 87.0513L288.504 181.825C290.737 182.974 292.141 185.271 292.141 187.76C292.141 188.845 291.886 189.866 291.376 190.823L248.875 273.471C247.216 276.726 243.196 278.002 239.878 276.343L132.797 221.202C131.904 208.374 130.309 194.397 127.947 179.782C121.949 143.15 112.568 109.771 102.422 86.413Z" fill="#FAF6EB"/>
<path fill-rule="evenodd" clip-rule="evenodd" d="M65.3457 139.32C65.3457 139.32 68.8555 141.107 71.7909 141.235C71.9824 141.235 72.11 141.235 72.3014 141.235C74.9816 141.171 77.3428 139.512 78.5552 137.15L81.6821 131.024C82.5755 129.3 82.767 127.322 82.1926 125.535C81.9374 124.769 81.6183 124.003 81.1716 123.301C79.5124 120.812 76.0665 119.153 76.0665 119.153L65.3457 139.32Z" fill="#1C2628" stroke="#1C2628" stroke-width="2.13" stroke-linecap="round" stroke-linejoin="round"/>
<path fill-rule="evenodd" clip-rule="evenodd" d="M259.851 133.704C263.297 133.066 293.928 139.831 312.881 148.51L331.004 244.05C331.004 244.05 321.623 241.561 311.222 236.391C301.969 231.796 291.95 225.159 286.972 216.288C272.295 190.121 279.251 170.146 279.251 170.146C279.251 170.146 267.892 168.869 253.47 160.764C253.47 160.764 251.045 160.7 247.408 160.317C240.133 159.551 228.263 157.509 222.839 152.084C211.225 140.469 213.522 131.279 215.309 131.917C217.734 131.406 258.128 133.13 259.851 133.704Z" fill="#F26B1D" stroke="#1C2628" stroke-width="2.13" stroke-linecap="round" stroke-linejoin="round"/>
<path fill-rule="evenodd" clip-rule="evenodd" d="M200.951 281.768C202.674 289.873 209.949 293.128 217.67 289.171C219.776 288.086 229.22 281.576 228.136 275.705C227.625 272.96 228.838 264.026 207.587 265.749C199.292 266.897 198.717 270.982 200.951 281.768Z" fill="#F26B1D" stroke="#1C2628" stroke-width="2.13" stroke-linecap="round" stroke-linejoin="round"/>
<path d="M461.695 212.139C462.015 226.691 461.504 242.135 459.972 258.09C456.846 290.511 450.018 320.124 440.956 343.993" stroke="#1C2628" stroke-width="2.13" stroke-linecap="round" stroke-linejoin="round"/>
<path d="M380.332 300.403C380.332 300.403 389.586 297.531 397.562 281.832C405.539 266.132 416.324 249.857 416.324 226.946" stroke="#1C2628" stroke-width="2.13" stroke-linecap="round" stroke-linejoin="round"/>
<path d="M217.479 140.66C217.479 140.66 231.901 143.022 234.198 140.66C236.559 138.299 236.559 134.853 236.559 134.853" stroke="#1C2628" stroke-width="2.13" stroke-linecap="round" stroke-linejoin="round"/>
<path fill-rule="evenodd" clip-rule="evenodd" d="M290.227 169.444C294.694 178.889 287.228 183.676 290.418 195.865C294.439 210.863 308.095 212.14 311.349 225.031C312.115 228.031 312.37 231.796 311.222 236.455C301.969 231.86 291.95 225.223 286.972 216.352C272.295 190.185 279.251 170.209 279.251 170.209C279.251 170.209 267.892 168.933 253.47 160.828C253.47 160.828 251.045 160.764 247.408 160.381C251.428 157.573 256.022 155.595 261 155.02C272.295 153.808 285.568 159.679 290.227 169.444Z" fill="#FAF6EB"/>
<path fill-rule="evenodd" clip-rule="evenodd" d="M338.726 252.41C333.62 253.24 327.813 242.071 322.963 232.69C312.243 211.948 308.414 189.547 307.903 186.484C305.861 173.783 305.989 165.359 298.842 157.573C294.566 152.85 286.462 147.425 287.036 145.766C287.993 143.086 305.287 144.873 316.263 150.042C341.597 161.913 346 200.014 346.83 206.906C349.319 226.818 345.937 251.262 338.726 252.41Z" fill="#F26B1D"/>
<path d="M191.889 97.5816L204.716 116.855" stroke="#1C2628" stroke-width="2.13" stroke-linecap="round" stroke-linejoin="round"/>
<path d="M211.927 96.4328L214.224 116.472" stroke="#1C2628" stroke-width="2.13" stroke-linecap="round" stroke-linejoin="round"/>
<path d="M224.052 118.004L244.089 99.4962" stroke="#1C2628" stroke-width="2.13" stroke-linecap="round" stroke-linejoin="round"/>
<path d="M244.472 117.238L255.448 108.176" stroke="#1C2628" stroke-width="2.13" stroke-linecap="round" stroke-linejoin="round"/>
<path d="M411.857 299.765C417.217 302.063 423.343 303.594 428.767 301.616C432.915 300.148 436.106 296.829 439.552 294.021C442.998 291.213 447.21 288.788 451.613 289.49" stroke="#1C2628" stroke-width="2.13" stroke-linecap="round" stroke-linejoin="round"/>
<path d="M436.744 289.681C440.573 287.831 442.998 283.874 446.827 282.151C448.677 281.321 450.783 281.066 452.825 281.066" stroke="#1C2628" stroke-width="2.13" stroke-linecap="round" stroke-linejoin="round"/>
<path d="M366.612 269.45C369.548 269.45 372.547 269.45 375.483 269.961C378.418 270.471 381.29 271.556 383.459 273.535C385.82 275.641 387.288 278.577 388.692 281.385" stroke="#1C2628" stroke-width="2.13" stroke-linecap="round" stroke-linejoin="round"/>
<path d="M381.162 267.153C383.715 267.982 386.012 269.706 387.543 271.939" stroke="#1C2628" stroke-width="2.13" stroke-linecap="round" stroke-linejoin="round"/>
<path d="M218.372 283.874C215.564 284.193 212.629 284.512 210.076 283.427C207.524 282.342 205.482 279.279 206.63 276.662" stroke="#1C2628" stroke-width="2.13" stroke-linecap="round" stroke-linejoin="round"/>
<path d="M304.394 157.828C326.792 171.294 349.702 184.058 372.93 196.057" stroke="#1C2628" stroke-width="2.13" stroke-linecap="round" stroke-linejoin="round"/>
<path d="M349.383 175.698L398.456 201.226" stroke="#1C2628" stroke-width="2.13" stroke-linecap="round" stroke-linejoin="round"/>
<path d="M272.487 143.915C289.653 147.936 301.586 146.851 325.388 161.976" stroke="#1C2628" stroke-width="2.13" stroke-linecap="round" stroke-linejoin="round"/>
<path fill-rule="evenodd" clip-rule="evenodd" d="M76.3855 52.652C83.7241 53.6093 91.9562 64.0758 99.9329 80.9883C100.699 82.6476 101.528 84.4346 102.294 86.2215C102.294 86.2854 102.358 86.3492 102.358 86.413C112.504 109.771 121.949 143.213 127.884 179.782C130.245 194.397 131.84 208.374 132.733 221.202C132.861 223.18 132.989 225.095 133.116 227.01C133.946 242.518 133.754 256.239 132.478 267.472C130.245 287.831 124.629 299.765 116.142 298.68C107.718 297.595 97.9547 283.746 88.8931 262.047C81.2992 243.858 74.152 220.181 68.7278 193.823C68.2811 191.717 67.8982 189.675 67.4515 187.569C66.4305 182.335 65.4733 176.974 64.5799 171.55C63.6227 165.678 62.7931 159.934 62.0911 154.382C61.7082 151.319 61.3892 148.319 61.0701 145.383C58.9004 125.024 58.3261 106.772 59.2833 91.9016C60.9425 66.6925 66.8772 51.4394 76.3855 52.652Z" fill="#1C2628" stroke="#1C2628" stroke-width="2.13" stroke-linecap="round" stroke-linejoin="round"/>
<path d="M120.034 222.096C120.162 224.01 120.29 225.861 120.354 227.712C120.673 233.583 120.864 239.263 120.864 244.56C120.864 252.474 120.481 259.686 119.779 266.068" stroke="#FAF6EB" stroke-width="2.13" stroke-linecap="round" stroke-linejoin="round"/>
<path d="M88.4464 86.4768C89.2122 88.0723 89.9141 89.6678 90.6799 91.3272L90.8075 91.6463" stroke="#FAF6EB" stroke-width="2.13" stroke-linecap="round" stroke-linejoin="round"/>
<path d="M100.699 257.133C93.2963 239.391 86.4044 216.033 81.2354 191.27C80.8525 189.228 80.4058 187.25 80.023 185.143C79.0657 180.038 78.1085 174.805 77.2151 169.507C76.3217 163.891 75.4921 158.275 74.7902 152.723C74.4073 149.914 74.0882 147.17 73.833 144.554L73.7692 143.915C72.3653 130.513 71.5995 118.004 71.5995 106.58C71.5995 101.666 71.7271 96.9434 71.9824 92.6036" stroke="#FAF6EB" stroke-width="2.13" stroke-linecap="round" stroke-linejoin="round"/>
<path d="M48.3711 66.9478C50.477 34.2716 58.1347 14.4234 70.4508 16.0828C79.9591 17.2953 90.6799 30.9529 101.018 52.8434C102.039 55.0133 103.06 57.3108 104.081 59.6084C104.145 59.6722 104.145 59.736 104.145 59.7998" stroke="#1C2628" stroke-width="2.13" stroke-linecap="round" stroke-linejoin="round"/>
<path d="M143.327 294.723C140.391 321.145 133.116 336.653 122.14 335.249C111.164 333.845 98.529 315.848 86.7872 287.767C76.896 264.153 67.7067 233.392 60.6234 199.248C60.049 196.567 59.5385 193.823 58.9642 191.143C57.6241 184.314 56.4116 177.357 55.263 170.337C54.0505 162.742 52.9657 155.275 52.0723 148" stroke="#1C2628" stroke-width="2.13" stroke-linecap="round" stroke-linejoin="round"/>
<path d="M483.52 104.602C493.028 140.405 505.727 176.4 503.494 213.416" stroke="#1C2628" stroke-width="2.13" stroke-linecap="round" stroke-linejoin="round"/>
<path d="M197.76 175.889C197.76 159.5 184.475 146.213 168.087 146.213C151.698 146.213 138.413 159.5 138.413 175.889C138.413 192.279 151.698 205.566 168.087 205.566C184.475 205.566 197.76 192.279 197.76 175.889Z" fill="#F3A13B"/>
<path d="M157.621 195.738C146.645 189.994 142.433 176.4 148.24 165.487" stroke="#1C2628" stroke-width="2.13" stroke-linecap="round" stroke-linejoin="round"/>
<path d="M160.493 190.249C152.58 186.101 149.517 176.272 153.728 168.359" stroke="#1C2628" stroke-width="2.13" stroke-linecap="round" stroke-linejoin="round"/>
<path d="M172.107 175.889C172.107 173.669 170.307 171.869 168.087 171.869C165.866 171.869 164.066 173.669 164.066 175.889C164.066 178.11 165.866 179.91 168.087 179.91C170.307 179.91 172.107 178.11 172.107 175.889Z" stroke="#1C2628" stroke-width="2.13" stroke-linecap="round" stroke-linejoin="round"/>
<path d="M189.528 174.102L204.844 182.144" stroke="#1C2628" stroke-width="2.13" stroke-linecap="round" stroke-linejoin="round"/>
<path d="M189.528 174.102C188.89 175.379 187.295 175.826 186.082 175.187L183.593 173.847C182.317 173.209 181.87 171.613 182.509 170.401C183.147 169.124 184.742 168.678 185.955 169.316L188.443 170.656C189.72 171.294 190.166 172.89 189.528 174.102Z" stroke="#1C2628" stroke-width="2.13" stroke-linecap="round" stroke-linejoin="round"/>
<path d="M205.482 226.244L228.646 180.74" stroke="#1C2628" stroke-width="2.13" stroke-linecap="round" stroke-linejoin="round"/>
<path d="M228.2 207.417L242.622 179.272" stroke="#1C2628" stroke-width="2.13" stroke-linecap="round" stroke-linejoin="round"/>
<path d="M212.31 238.561L228.2 207.417" stroke="black" stroke-width="6" stroke-linecap="round" stroke-linejoin="round"/>
<path d="M308.159 358.225C307.074 361.16 307.138 364.352 308.095 366.968C308.605 368.5 309.371 369.84 310.265 370.925C309.563 371.116 308.861 371.244 308.159 371.436C306.819 371.755 305.415 372.074 304.011 372.329C302.734 371.116 301.331 370.032 299.799 369.074C296.289 366.649 292.078 364.99 287.738 364.798C283.463 364.671 279.059 364.734 275.358 366.394C274.401 366.777 273.763 367.223 272.487 367.989C272.04 368.245 271.146 368.755 270.508 369.393C269.806 370.032 269.36 371.18 269.551 372.329C270.062 374.627 271.529 375.584 272.614 376.222C273.189 376.541 273.699 376.733 274.337 376.924C274.656 377.052 274.848 377.116 275.103 377.179L275.294 377.243C275.486 377.307 275.486 377.307 275.55 377.307L275.933 377.371C278.166 377.818 280.208 377.562 282.123 377.307C284.037 377.052 285.888 376.797 287.738 376.605C290.674 376.35 293.545 375.903 296.417 375.329C297.693 376.222 298.969 377.179 300.118 378.201L302.288 380.115C302.99 380.753 303.819 381.392 304.649 382.094C307.967 384.71 311.732 386.753 315.944 387.837C320.092 388.986 325.006 388.539 328.707 386.178C332.472 383.881 334.833 380.179 335.982 376.477C337.067 372.84 337.322 369.138 336.811 365.628C338.598 365.181 340.385 364.734 342.044 364.352C346.447 362.947 350.595 364.224 352.127 366.904C353.212 368.883 352.829 370.925 352.127 372.265C352.127 372.138 352.127 372.01 352.127 371.819C352.063 369.712 350.276 368.117 348.17 368.245C346.064 368.308 344.469 370.095 344.597 372.201C344.66 374.308 346.447 375.903 348.553 375.775C348.745 375.775 348.872 375.712 349.064 375.712C349.829 375.584 350.531 375.201 351.042 374.69C351.233 374.563 351.361 374.435 351.552 374.244C352.254 373.542 352.956 372.584 353.339 371.244C353.722 369.904 353.786 368.245 353.084 366.458C352.382 364.734 350.723 363.139 348.553 362.501C347.468 362.182 346.32 361.99 345.107 362.118C343.831 362.245 342.746 362.501 341.597 362.756C339.938 363.139 338.215 363.586 336.428 364.032C335.79 360.905 334.514 358.033 332.791 355.48C330.685 352.672 327.622 350.566 324.24 349.928C320.858 349.226 317.348 349.864 314.476 351.332C311.605 352.672 309.244 355.225 308.159 358.225ZM279.378 373.988C277.847 373.542 273.635 372.776 274.21 370.414C274.592 368.947 276.571 368.564 277.847 368.5C280.846 368.308 283.973 368.883 286.717 370.159C289.397 371.372 291.886 372.648 294.375 374.116C292.141 374.435 289.908 374.69 287.611 374.882C284.867 375.01 282.059 374.69 279.378 373.988ZM333.046 375.329C331.706 378.392 329.536 381.136 326.665 382.54C323.857 383.944 320.539 383.944 317.412 382.796C314.285 381.647 311.413 379.477 308.861 377.116C308.223 376.541 307.584 375.967 306.882 375.201L305.925 374.18C305.67 373.925 305.479 373.733 305.223 373.478C306.308 373.223 307.393 372.967 308.478 372.776C309.435 372.584 310.328 372.329 311.286 372.138C313.391 374.244 315.944 375.456 318.178 375.839C321.943 376.477 324.814 375.456 326.473 374.627C327.303 374.244 327.941 373.797 328.324 373.542C328.707 373.286 328.898 373.095 328.898 373.095C328.898 373.095 327.941 373.414 326.154 373.733C324.431 373.988 321.751 374.244 318.88 373.159C317.731 372.712 316.518 372.074 315.434 371.116C319.326 370.159 323.155 369.202 326.665 368.245C329.409 367.543 332.089 366.841 334.578 366.138C334.833 369.266 334.323 372.521 333.046 375.329ZM323.985 351.843C326.856 352.034 329.664 353.693 331.451 356.31C333.046 358.608 334.067 361.416 334.45 364.415C331.834 365.117 329.154 365.883 326.282 366.713C322.517 367.798 318.497 368.883 314.285 369.968C313.264 368.819 312.434 367.415 311.988 365.756C310.967 361.99 312.179 357.267 316.327 354.204C318.433 352.672 321.177 351.651 323.985 351.843Z" fill="#1C2628" stroke="#1C2628" stroke-width="2.13" stroke-linecap="round" stroke-linejoin="round"/>
<path d="M244.025 244.943L228.072 254.389L227.817 235.881L244.025 244.943Z" fill="#1C2628" stroke="#1C2628" stroke-width="2.13" stroke-linecap="round" stroke-linejoin="round"/>
<path d="M266.871 204.162L266.679 185.59L250.726 195.099L266.871 204.162Z" fill="#1C2628" stroke="#1C2628" stroke-width="2.13" stroke-linecap="round" stroke-linejoin="round"/>
<path d="M236.18 221.063L252.373 230.152L255.028 225.422L238.835 216.333L236.18 221.063Z" fill="#1C2628" stroke="#1C2628" stroke-width="2.1299" stroke-miterlimit="3.9998" stroke-linecap="round" stroke-linejoin="round"/>
<path d="M240.703 212.978L256.896 222.067L259.55 217.337L243.357 208.248L240.703 212.978Z" fill="#1C2628" stroke="#1C2628" stroke-width="2.1299" stroke-miterlimit="3.9998" stroke-linecap="round" stroke-linejoin="round"/>
</g>
<defs>
<clipPath id="clip0_4_126">
<rect width="441" height="522" fill="white" transform="translate(0 441) rotate(-90)"/>
</clipPath>
</defs>
</svg>
