<svg width="147" height="41" viewBox="0 0 147 41" fill="none" xmlns="http://www.w3.org/2000/svg">
<path fill-rule="evenodd" clip-rule="evenodd" d="M14.4144 15.3987C13.2582 14.0465 12.4696 11.3474 12.4696 8.2385C12.4696 4.42274 13.6575 1.22451 15.2551 0.375844C14.3395 0.0724607 13.2916 0.00442817 12.6221 0.00442814C12.6221 0.00442814 9.33486 -0.195466 7.04878 2.0908C8.23595 2.0908 9.19811 3.05318 9.19811 4.24031C9.19811 6.27509 7.42304 6.27278 5.98283 6.27092C5.93965 6.27088 5.89684 6.27081 5.85442 6.27081C3.66835 6.27081 1.79441 7.60688 1.00422 9.507C1.58796 9.2232 2.24367 9.06399 2.93612 9.06399C5.02105 9.06399 5.79759 10.288 6.6999 11.7106C7.41773 12.8425 8.21511 14.1001 9.81518 14.9668C10.6501 15.419 11.606 15.6758 12.6221 15.6758C13.247 15.6758 13.8492 15.5787 14.4144 15.3987Z" fill="#FF5D01"/>
<path fill-rule="evenodd" clip-rule="evenodd" d="M14.4144 15.3987C13.2582 14.0465 12.4696 11.3474 12.4696 8.2385C12.4696 4.42274 13.6575 1.22451 15.2551 0.375844C14.3395 0.0724607 13.2916 0.00442817 12.6221 0.00442814C12.6221 0.00442814 9.33486 -0.195466 7.04878 2.0908C8.23595 2.0908 9.19811 3.05318 9.19811 4.24031C9.19811 6.27509 7.42304 6.27278 5.98283 6.27092C5.93965 6.27088 5.89684 6.27081 5.85442 6.27081C3.66835 6.27081 1.79441 7.60688 1.00422 9.507C1.58796 9.2232 2.24367 9.06399 2.93612 9.06399C5.02105 9.06399 5.79759 10.288 6.6999 11.7106C7.41773 12.8425 8.21511 14.1001 9.81518 14.9668C10.6501 15.419 11.606 15.6758 12.6221 15.6758C13.247 15.6758 13.8492 15.5787 14.4144 15.3987Z" fill="url(#paint0_linear_109_2)"/>
<path fill-rule="evenodd" clip-rule="evenodd" d="M13.9609 15.446C12.7476 15.0945 11.2273 13.8005 10.0151 11.9558C8.52726 9.69179 7.98507 7.33095 8.60211 6.20445C7.94053 6.38146 7.29223 6.74969 6.89503 7.01071C6.89503 7.01071 4.8666 8.17387 4.40162 10.4218C5.10601 9.95889 6.05215 10.1548 6.51503 10.8591C7.30842 12.0665 6.2543 12.7572 5.39903 13.3177C5.3734 13.3345 5.34797 13.3511 5.3228 13.3677C4.0257 14.22 3.43477 15.7435 3.7068 17.179C3.9425 16.783 4.26948 16.4329 4.68034 16.1629C5.91742 15.3499 6.85545 15.7734 7.9455 16.2656C8.81277 16.6574 9.77624 17.0926 11.0636 16.983C11.7353 16.9258 12.4026 16.7054 13.0055 16.3092C13.3763 16.0656 13.6957 15.7731 13.9609 15.446Z" fill="#FF5D01"/>
<path fill-rule="evenodd" clip-rule="evenodd" d="M13.9609 15.446C12.7476 15.0945 11.2273 13.8005 10.0151 11.9558C8.52726 9.69179 7.98507 7.33095 8.60211 6.20445C7.94053 6.38146 7.29223 6.74969 6.89503 7.01071C6.89503 7.01071 4.8666 8.17387 4.40162 10.4218C5.10601 9.95889 6.05215 10.1548 6.51503 10.8591C7.30842 12.0665 6.2543 12.7572 5.39903 13.3177C5.3734 13.3345 5.34797 13.3511 5.3228 13.3677C4.0257 14.22 3.43477 15.7435 3.7068 17.179C3.9425 16.783 4.26948 16.4329 4.68034 16.1629C5.91742 15.3499 6.85545 15.7734 7.9455 16.2656C8.81277 16.6574 9.77624 17.0926 11.0636 16.983C11.7353 16.9258 12.4026 16.7054 13.0055 16.3092C13.3763 16.0656 13.6957 15.7731 13.9609 15.446Z" fill="url(#paint1_linear_109_2)"/>
<path fill-rule="evenodd" clip-rule="evenodd" d="M14.4144 30.3987C13.2582 29.0465 12.4696 26.3474 12.4696 23.2385C12.4696 19.4227 13.6575 16.2245 15.2551 15.3758C14.3395 15.0725 13.2916 15.0044 12.6221 15.0044C12.6221 15.0044 9.33486 14.8045 7.04878 17.0908C8.23595 17.0908 9.19811 18.0532 9.19811 19.2403C9.19811 21.2751 7.42304 21.2728 5.98283 21.2709C5.93965 21.2709 5.89684 21.2708 5.85442 21.2708C3.66835 21.2708 1.79441 22.6069 1.00422 24.507C1.58796 24.2232 2.24367 24.064 2.93612 24.064C5.02105 24.064 5.79759 25.288 6.6999 26.7106C7.41773 27.8425 8.21511 29.1001 9.81518 29.9668C10.6501 30.419 11.606 30.6758 12.6221 30.6758C13.247 30.6758 13.8492 30.5787 14.4144 30.3987Z" fill="#FF5D01"/>
<path fill-rule="evenodd" clip-rule="evenodd" d="M14.4144 30.3987C13.2582 29.0465 12.4696 26.3474 12.4696 23.2385C12.4696 19.4227 13.6575 16.2245 15.2551 15.3758C14.3395 15.0725 13.2916 15.0044 12.6221 15.0044C12.6221 15.0044 9.33486 14.8045 7.04878 17.0908C8.23595 17.0908 9.19811 18.0532 9.19811 19.2403C9.19811 21.2751 7.42304 21.2728 5.98283 21.2709C5.93965 21.2709 5.89684 21.2708 5.85442 21.2708C3.66835 21.2708 1.79441 22.6069 1.00422 24.507C1.58796 24.2232 2.24367 24.064 2.93612 24.064C5.02105 24.064 5.79759 25.288 6.6999 26.7106C7.41773 27.8425 8.21511 29.1001 9.81518 29.9668C10.6501 30.419 11.606 30.6758 12.6221 30.6758C13.247 30.6758 13.8492 30.5787 14.4144 30.3987Z" fill="url(#paint2_linear_109_2)"/>
<path fill-rule="evenodd" clip-rule="evenodd" d="M13.9609 30.446C12.7476 30.0945 11.2273 28.8005 10.0151 26.9558C8.52726 24.6918 7.98507 22.3309 8.60211 21.2044C7.94053 21.3815 7.29223 21.7497 6.89503 22.0107C6.89503 22.0107 4.8666 23.1739 4.40162 25.4218C5.10601 24.9589 6.05215 25.1548 6.51503 25.8591C7.30842 27.0665 6.2543 27.7572 5.39903 28.3177C5.3734 28.3345 5.34797 28.3511 5.3228 28.3677C4.0257 29.22 3.43477 30.7435 3.7068 32.179C3.9425 31.783 4.26948 31.4329 4.68034 31.1629C5.91742 30.3499 6.85545 30.7734 7.9455 31.2656C8.81277 31.6574 9.77624 32.0926 11.0636 31.983C11.7353 31.9258 12.4026 31.7054 13.0055 31.3092C13.3763 31.0656 13.6957 30.7731 13.9609 30.446Z" fill="#FF5D01"/>
<path fill-rule="evenodd" clip-rule="evenodd" d="M13.9609 30.446C12.7476 30.0945 11.2273 28.8005 10.0151 26.9558C8.52726 24.6918 7.98507 22.3309 8.60211 21.2044C7.94053 21.3815 7.29223 21.7497 6.89503 22.0107C6.89503 22.0107 4.8666 23.1739 4.40162 25.4218C5.10601 24.9589 6.05215 25.1548 6.51503 25.8591C7.30842 27.0665 6.2543 27.7572 5.39903 28.3177C5.3734 28.3345 5.34797 28.3511 5.3228 28.3677C4.0257 29.22 3.43477 30.7435 3.7068 32.179C3.9425 31.783 4.26948 31.4329 4.68034 31.1629C5.91742 30.3499 6.85545 30.7734 7.9455 31.2656C8.81277 31.6574 9.77624 32.0926 11.0636 31.983C11.7353 31.9258 12.4026 31.7054 13.0055 31.3092C13.3763 31.0656 13.6957 30.7731 13.9609 30.446Z" fill="url(#paint3_linear_109_2)"/>
<g clip-path="url(#clip0_109_2)">
<path fill-rule="evenodd" clip-rule="evenodd" d="M12.1229 30.1429C12.1265 30.1144 12.1277 30.099 12.1277 30.099L12.1229 29.4534L12.1229 16.9386L20.1206 9.09216L20.2048 31.3171C20.2048 31.3171 18.5905 38.5879 12.1229 40.7459L12.1229 30.1429Z" fill="black"/>
<path fill-rule="evenodd" clip-rule="evenodd" d="M12.1229 14.2316C12.1265 14.2031 12.1277 14.1877 12.1277 14.1877L12.1229 13.5422L12.1229 1.02732L20.1206 -6.81909L20.2048 15.4058C20.2048 15.4058 18.5905 22.6766 12.1229 24.8346L12.1229 14.2316Z" fill="black"/>
</g>
<g clip-path="url(#clip1_109_2)">
<path fill-rule="evenodd" clip-rule="evenodd" d="M7.85673 12.8174C7.88527 12.821 7.90067 12.8221 7.90067 12.8221L8.54621 12.8174L21.0611 12.8174L28.9075 20.8151L6.68257 20.8993C6.68257 20.8993 -0.588245 19.285 -2.74624 12.8174L7.85673 12.8174Z" fill="black"/>
<path fill-rule="evenodd" clip-rule="evenodd" d="M23.768 12.8174C23.7965 12.821 23.8119 12.8221 23.8119 12.8221L24.4575 12.8174L36.9723 12.8174L44.8187 20.8151L22.5938 20.8993C22.5938 20.8993 15.323 19.285 13.165 12.8174L23.768 12.8174Z" fill="black"/>
</g>
<g clip-path="url(#clip2_109_2)">
<path fill-rule="evenodd" clip-rule="evenodd" d="M7.60417 0.0631099C7.63271 0.0666852 7.64811 0.0678736 7.64811 0.0678736L8.29366 0.06311L20.8085 0.063111L28.6549 8.0608L6.43002 8.14503C6.43002 8.14503 -0.840798 6.53071 -2.9988 0.063109L7.60417 0.0631099Z" fill="black"/>
<path fill-rule="evenodd" clip-rule="evenodd" d="M23.5154 0.0631099C23.544 0.0666852 23.5594 0.0678736 23.5594 0.0678736L24.2049 0.06311L36.7197 0.063111L44.5662 8.0608L22.3413 8.14503C22.3413 8.14503 15.0705 6.53071 12.9125 0.063109L23.5154 0.0631099Z" fill="black"/>
</g>
<path d="M42.855 22V11.185H44.07V20.785H53.655V22H42.855ZM54.5595 22V13C54.5595 12.67 54.6395 12.37 54.7995 12.1C54.9595 11.82 55.1745 11.6 55.4445 11.44C55.7245 11.28 56.0295 11.2 56.3595 11.2H63.5595C63.8895 11.2 64.1895 11.28 64.4595 11.44C64.7395 11.6 64.9595 11.82 65.1195 12.1C65.2795 12.37 65.3595 12.67 65.3595 13V22H64.1445V18.055H55.7745V22H54.5595ZM55.7745 16.84H64.1445V13C64.1445 12.84 64.0845 12.705 63.9645 12.595C63.8545 12.475 63.7195 12.415 63.5595 12.415H56.3595C56.1995 12.415 56.0595 12.475 55.9395 12.595C55.8295 12.705 55.7745 12.84 55.7745 13V16.84ZM67.0685 22V11.2H68.7335L73.2185 16.54L77.7035 11.2H79.3685V22H78.1535V12.58L73.2185 18.445L68.2835 12.58V22H67.0685ZM81.0145 22V11.2H90.8695V12.415H82.2295V15.985H89.1745V17.215H82.2295V20.785H90.8695V22H81.0145ZM96.5558 22V11.215H105.556C105.886 11.215 106.186 11.3 106.456 11.47C106.736 11.63 106.956 11.845 107.116 12.115C107.276 12.385 107.356 12.685 107.356 13.015V16.18C107.356 16.51 107.276 16.81 107.116 17.08C106.956 17.35 106.736 17.57 106.456 17.74C106.186 17.9 105.886 17.98 105.556 17.98H97.7708V22H96.5558ZM98.3558 16.75H105.556C105.716 16.75 105.851 16.695 105.961 16.585C106.081 16.475 106.141 16.34 106.141 16.18V13.015C106.141 12.855 106.081 12.72 105.961 12.61C105.851 12.49 105.716 12.43 105.556 12.43H98.3558C98.1958 12.43 98.0558 12.49 97.9358 12.61C97.8258 12.72 97.7708 12.855 97.7708 13.015V16.18C97.7708 16.34 97.8258 16.475 97.9358 16.585C98.0558 16.695 98.1958 16.75 98.3558 16.75ZM108.436 22V11.185H109.651V20.785H119.236V22H108.436ZM120.141 22V13C120.141 12.67 120.221 12.37 120.381 12.1C120.541 11.82 120.756 11.6 121.026 11.44C121.306 11.28 121.611 11.2 121.941 11.2H129.141C129.471 11.2 129.771 11.28 130.041 11.44C130.321 11.6 130.541 11.82 130.701 12.1C130.861 12.37 130.941 12.67 130.941 13V22H129.726V18.055H121.356V22H120.141ZM121.356 16.84H129.726V13C129.726 12.84 129.666 12.705 129.546 12.595C129.436 12.475 129.301 12.415 129.141 12.415H121.941C121.781 12.415 121.641 12.475 121.521 12.595C121.411 12.705 121.356 12.84 121.356 13V16.84ZM137.064 22V17.935L132.099 11.2H133.494L137.679 16.48L141.819 11.2H143.244L138.279 17.935V22H137.064Z" fill="black"/>
<defs>
<linearGradient id="paint0_linear_109_2" x1="21.0975" y1="21.4872" x2="6.70508" y2="14.6122" gradientUnits="userSpaceOnUse">
<stop stop-color="#FF1639"/>
<stop offset="1" stop-color="#FF1639" stop-opacity="0"/>
</linearGradient>
<linearGradient id="paint1_linear_109_2" x1="20.3003" y1="16.4527" x2="9.07997" y2="17.9853" gradientUnits="userSpaceOnUse">
<stop stop-color="#FF1639"/>
<stop offset="1" stop-color="#FF1639" stop-opacity="0"/>
</linearGradient>
<linearGradient id="paint2_linear_109_2" x1="21.0975" y1="36.4872" x2="6.70508" y2="29.6122" gradientUnits="userSpaceOnUse">
<stop stop-color="#FF1639"/>
<stop offset="1" stop-color="#FF1639" stop-opacity="0"/>
</linearGradient>
<linearGradient id="paint3_linear_109_2" x1="20.3003" y1="31.4527" x2="9.07997" y2="32.9853" gradientUnits="userSpaceOnUse">
<stop stop-color="#FF1639"/>
<stop offset="1" stop-color="#FF1639" stop-opacity="0"/>
</linearGradient>
<clipPath id="clip0_109_2">
<rect width="8.08192" height="39.7782" fill="white" transform="translate(12.1229 1.01025)"/>
</clipPath>
<clipPath id="clip1_109_2">
<rect width="8.08192" height="24.7509" fill="white" transform="translate(37 12.7543) rotate(90)"/>
</clipPath>
<clipPath id="clip2_109_2">
<rect width="8.08192" height="24.6246" fill="white" transform="translate(36.7474) rotate(90)"/>
</clipPath>
</defs>
</svg>
