<svg width="51" height="105" viewBox="0 0 51 105" fill="none" xmlns="http://www.w3.org/2000/svg">
<g clip-path="url(#clip0_4_2423)">
<path d="M43.4864 53.2907C40.4114 50.8157 36.5113 49.6157 33.0613 49.6907C31.0363 49.6907 29.1613 50.1407 27.4363 50.7407C27.5113 49.8407 27.5864 48.9407 27.6614 48.0407C27.8114 46.3157 28.0363 44.5157 28.1863 42.7157C30.1363 41.6657 32.0113 40.3907 33.8113 39.0407C38.1614 35.8157 41.7613 31.4657 43.7113 26.3657C45.5863 21.2657 47.3114 16.0157 46.7864 10.9157C46.7113 9.56572 46.4114 8.66572 46.0364 6.86569C45.8864 6.19069 45.5863 4.99069 45.1364 3.86569C44.6864 2.81569 43.4863 1.76569 42.0613 1.54069C39.1363 1.24069 37.4114 2.66569 36.2113 3.64069C35.6114 4.24069 35.1614 4.76569 34.6364 5.36569C34.3363 5.66569 34.1864 5.89068 34.0364 6.19068L33.8864 6.34069C33.7364 6.49069 33.8114 6.49069 33.7364 6.64069L33.5114 7.09069C32.0864 9.56572 31.5613 12.1156 31.1114 14.5156C30.6614 16.8406 30.2114 19.1657 29.7614 21.4907C28.9363 25.1657 28.3363 28.7657 27.8113 32.3657C26.2363 33.5657 24.5864 34.6907 22.8614 35.6657L19.7114 37.4657C18.6614 38.0657 17.5364 38.7406 16.4114 39.5656C11.9864 42.4906 8.01135 46.1657 5.08635 50.8157C2.08635 55.3907 0.661368 61.3907 2.01137 66.7157C3.28637 72.1157 6.73635 76.3905 10.7114 79.3155C14.6114 82.0905 18.9614 83.8905 23.3864 84.7155C23.2364 87.0405 23.0864 89.3655 22.8614 91.5405C22.7864 97.3905 19.6364 101.816 15.8114 102.641C12.9614 103.166 10.7114 101.89 9.43635 100.465C9.58635 100.54 9.73635 100.616 9.96135 100.69C12.5114 101.44 15.1364 99.9405 15.8114 97.3905C16.5614 94.8405 15.0614 92.2155 12.5114 91.5405C9.96135 90.7905 7.33637 92.2905 6.66137 94.7655C6.58637 94.9905 6.58635 95.1405 6.58635 95.3655C6.43635 96.3405 6.58637 97.3155 7.03637 98.2155C7.11137 98.4405 7.26135 98.7405 7.33635 99.0405C7.86135 100.165 8.76135 101.366 10.1864 102.415C11.6864 103.391 13.6364 104.215 15.9614 104.065C18.3614 103.915 20.9114 102.566 22.5614 100.241C23.3864 99.1155 24.0613 97.7655 24.4363 96.2655C24.8113 94.6905 24.9614 93.3405 25.1114 91.7655C25.3364 89.6655 25.4864 87.4155 25.6364 85.0905C29.6114 85.5405 33.5863 85.2405 37.3363 84.1155C41.5364 82.6905 45.2864 79.9155 47.3864 76.0905C49.5614 72.3407 50.2364 67.9157 49.5614 63.8657C48.7364 59.6657 46.6363 55.8407 43.4864 53.2907ZM36.1364 12.5656C37.2614 10.9156 39.8864 6.19069 42.5114 7.84072C44.1614 8.89072 43.7864 11.3656 43.3363 12.9406C42.3614 16.6156 40.4864 20.1407 37.8614 22.9157C35.3114 25.6157 32.7613 28.0907 30.0613 30.4907C30.5863 27.7157 31.1863 24.8657 31.8614 22.0907C32.7614 18.7157 34.1864 15.4906 36.1364 12.5656ZM13.0364 76.2405C9.88635 73.3907 7.48635 69.7157 6.96135 65.7407C6.43635 61.7657 7.78635 57.8657 10.3364 54.5657C12.9614 51.3407 16.6364 48.7157 20.5364 46.5407C21.4364 46.0157 22.4114 45.4907 23.6114 44.9657L25.1863 44.2157C25.5613 44.0657 25.9363 43.8407 26.3113 43.6157C26.1613 45.0407 26.0114 46.3906 25.8614 47.8156C25.7113 49.0156 25.6363 50.2157 25.5613 51.4157C22.2613 53.0657 19.7864 55.6907 18.3614 58.2407C16.1114 62.5157 16.1864 66.2657 16.4864 68.5907C16.6364 69.7907 16.8614 70.6157 17.0864 71.2157C17.2364 71.8157 17.3864 72.1157 17.3864 72.1157C17.3864 72.1157 17.3864 70.8407 17.6864 68.5907C18.0614 66.4157 18.8114 63.1157 21.2864 60.1157C22.2614 58.9157 23.5364 57.7157 25.1114 56.8157C24.7364 61.9157 24.3614 66.7906 24.0613 71.4407C23.7614 75.0405 23.6114 78.4905 23.3864 81.7155C19.6364 80.7405 15.9614 78.8655 13.0364 76.2405Z" fill="#1C2628" stroke="#1C2628" stroke-width="2.13" stroke-linecap="round" stroke-linejoin="round"/>
</g>
<defs>
<clipPath id="clip0_4_2423">
<rect width="51" height="105" fill="white"/>
</clipPath>
</defs>
</svg>
