<svg width="46" height="65" viewBox="0 0 46 65" fill="none" xmlns="http://www.w3.org/2000/svg">
<path d="M29.9 26.6724L28.8613 26.7471C23.0742 27.1207 21.5161 26.3736 20.1807 25.2529C20.1065 25.2529 20.1065 25.2529 20.0323 25.1782L16.3968 20.2471C17.9549 20.6954 20.0323 20.8448 23.2968 20.546L24.4097 20.4713C28.6387 20.0977 35.6871 19.5 37.3194 25.2529C37.4678 25.7012 37.9129 25.9253 38.2839 25.7759C38.3581 25.7759 38.3581 25.7759 38.4323 25.7012C38.8032 25.5517 38.9516 25.1035 38.8774 24.7299C36.8742 17.7069 28.6387 18.3793 24.2613 18.8276L23.2226 18.9023C17.4355 19.3506 15.9516 18.5287 14.542 17.4081C14.4678 17.3333 14.3936 17.4081 14.3194 17.3333L10.4613 12.1035C12.0194 12.5517 14.0226 12.6264 17.2871 12.4023L18.4 12.3276C22.629 11.954 29.6774 11.3563 31.3097 17.1092C31.4581 17.5575 31.9032 17.7816 32.2742 17.6322C32.2742 17.6322 32.3484 17.6322 32.3484 17.5575C32.7194 17.4081 32.8678 16.9598 32.7936 16.5862C30.7903 9.56323 22.629 10.2356 18.2516 10.6092L17.2129 10.6839C11.4258 11.1322 9.94195 10.3104 8.53227 9.18967H8.45808L4.97098 4.48277C6.45485 4.85633 8.53227 5.00577 11.6484 4.78163L12.7613 4.70692C16.9903 4.33336 24.0387 3.73565 25.671 9.48852C25.8194 9.93679 26.2645 10.1609 26.6355 10.0115C26.6355 10.0115 26.7097 10.0115 26.7097 9.93679C27.0807 9.78737 27.229 9.33909 27.1549 8.96553C25.1516 1.94254 16.9903 2.68967 12.5387 3.06324L11.4258 3.13795C5.63873 3.58622 4.15485 2.76439 2.74518 1.6437H2.67098C2.5226 1.56898 2.4484 1.49426 2.30002 1.49426C2.22582 1.49426 2.15163 1.49427 2.07744 1.56898C2.00324 1.56898 1.92905 1.56898 1.78066 1.6437C1.70647 1.6437 1.70647 1.71842 1.70647 1.79313C1.70647 1.79313 1.63227 1.79311 1.63227 1.86783C1.63227 1.94254 1.63227 1.94255 1.55808 2.01726C1.48389 2.09197 1.48389 2.2414 1.48389 2.31611C1.48389 2.46553 1.48389 2.54024 1.55808 2.61495C1.55808 2.68967 1.55808 2.68967 1.55808 2.76439L33.7581 46.4713C30.9387 46.3218 27.7484 48.3391 25.8194 51.7012C23.371 56.1092 24.0387 61.115 27.3032 62.9828C30.5678 64.8506 35.1678 62.7586 37.6161 58.4253C39.9903 54.1667 39.3968 49.2356 36.3549 47.3678L22.1097 28.092C23.6678 28.5402 25.671 28.615 29.0097 28.3908L30.1226 28.3161C34.3516 27.9425 41.4 27.3448 43.1065 33.0977C43.2549 33.546 43.7 33.7701 44.071 33.6207C44.071 33.6207 44.1452 33.6207 44.1452 33.546C44.5161 33.3966 44.6645 32.9483 44.5903 32.5747C42.4387 25.5517 34.2774 26.2989 29.9 26.6724Z" fill="#1C2628" stroke="#1C2628" stroke-width="2.13" stroke-linecap="round" stroke-linejoin="round"/>
</svg>
